<?xml version="1.0" encoding="utf-8"?>
<!-- Generator: Adobe Illustrator 24.1.1, SVG Export Plug-In . SVG Version: 6.00 Build 0)  -->
<svg version="1.1" id="Layer_1" xmlns="http://www.w3.org/2000/svg" xmlns:xlink="http://www.w3.org/1999/xlink" x="0px" y="0px"
	 viewBox="0 0 512 512" style="enable-background:new 0 0 512 512;" xml:space="preserve">
<style type="text/css">
	.st0{fill:#88C5CC;}
	.st1{clip-path:url(#SVGID_2_);fill:#242424;}
	.st2{clip-path:url(#SVGID_4_);fill:#242424;}
	.st3{clip-path:url(#SVGID_6_);fill:#B3B3B3;}
	.st4{clip-path:url(#SVGID_8_);fill:#242424;}
	.st5{clip-path:url(#SVGID_10_);fill:#B3B3B3;}
	.st6{clip-path:url(#SVGID_12_);fill:#E6E6E6;}
	.st7{clip-path:url(#SVGID_14_);fill:#242424;}
	.st8{clip-path:url(#SVGID_16_);fill:#F5F5F5;}
	.st9{clip-path:url(#SVGID_18_);fill:#242424;}
	.st10{clip-path:url(#SVGID_20_);fill:#242424;}
	.st11{clip-path:url(#SVGID_22_);fill:#F5F5F5;}
	.st12{clip-path:url(#SVGID_24_);fill:#242424;}
	.st13{clip-path:url(#SVGID_26_);fill:#242424;}
</style>
<g id="XMLID_1_">
	<circle id="XMLID_3_" class="st0" cx="256" cy="256" r="256"/>
	<g id="XMLID_6_">
		<g>
			<defs>
				<circle id="SVGID_1_" cx="256" cy="256" r="256"/>
			</defs>
			<clipPath id="SVGID_2_">
				<use xlink:href="#SVGID_1_"  style="overflow:visible;"/>
			</clipPath>
			<path id="XMLID_7_" class="st1" d="M434,357.6c-16.5-20.5-49.6-51.2-73.3-63.8C327.7,275.7,291.4,271,256,271
				s-71.7,4.7-104.8,22.8c-23.6,13.4-56.7,43.3-73.3,63.8c-15.8,20.5-31.5,52-31.5,83.5c0,92.2,96.1,170.1,209.5,170.1
				s209.5-78,209.5-170.1C465.5,409.6,449.8,378.1,434,357.6z"/>
		</g>
		<g>
			<defs>
				<circle id="SVGID_3_" cx="256" cy="256" r="256"/>
			</defs>
			<clipPath id="SVGID_4_">
				<use xlink:href="#SVGID_3_"  style="overflow:visible;"/>
			</clipPath>
			<path id="XMLID_8_" class="st2" d="M139.4,97.7c-5.5,0-10.2,0.8-15.8,3.2c-12.6,4.7-22.8,15-29.1,28.4
				c-5.5,13.4-6.3,29.1-2.4,44.1c4.7,14.2,14.2,25.2,27.6,31.5c10.2-18.1,54.4-70.1,66.2-77.2C178,107.1,158.3,97.7,139.4,97.7z"/>
		</g>
		<g>
			<defs>
				<circle id="SVGID_5_" cx="256" cy="256" r="256"/>
			</defs>
			<clipPath id="SVGID_6_">
				<use xlink:href="#SVGID_5_"  style="overflow:visible;"/>
			</clipPath>
			<path id="XMLID_9_" class="st3" d="M123.7,190.6c-3.9-3.9-6.3-8.7-7.9-14.2c-3.2-11-3.2-22.8,1.6-33.1c3.9-9.5,11-16.5,19.7-19.7
				c3.2-1.6,7.1-1.6,10.2-1.6c5.5,0,18.1,1.6,26,10.2C159.1,147.3,137.1,172.5,123.7,190.6z"/>
		</g>
		<g>
			<defs>
				<circle id="SVGID_7_" cx="256" cy="256" r="256"/>
			</defs>
			<clipPath id="SVGID_8_">
				<use xlink:href="#SVGID_7_"  style="overflow:visible;"/>
			</clipPath>
			<path id="XMLID_10_" class="st4" d="M372.6,97.7c5.5,0,10.2,0.8,15.8,3.2c12.6,4.7,22.8,15,29.1,28.4c5.5,13.4,6.3,29.1,2.4,44.1
				c-4.7,14.2-14.2,25.2-27.6,31.5c-10.2-18.1-54.4-70.1-66.2-77.2C334,107.1,353.7,97.7,372.6,97.7z"/>
		</g>
		<g>
			<defs>
				<circle id="SVGID_9_" cx="256" cy="256" r="256"/>
			</defs>
			<clipPath id="SVGID_10_">
				<use xlink:href="#SVGID_9_"  style="overflow:visible;"/>
			</clipPath>
			<path id="XMLID_11_" class="st5" d="M388.3,190.6c-13.4-18.1-34.7-43.3-49.6-58.3c7.9-9.5,20.5-10.2,26-10.2
				c3.2,0,7.1,0.8,10.2,1.6c8.7,3.2,15.8,10.2,19.7,19.7c4.7,10.2,4.7,22.1,1.6,33.1C394.6,182,391.5,186.7,388.3,190.6z"/>
		</g>
		<g>
			<defs>
				<circle id="SVGID_11_" cx="256" cy="256" r="256"/>
			</defs>
			<clipPath id="SVGID_12_">
				<use xlink:href="#SVGID_11_"  style="overflow:visible;"/>
			</clipPath>
			<path id="XMLID_12_" class="st6" d="M390.7,184.3c-12.6-18.1-37.8-44.1-55.1-55.9c-24.4-15.8-52-19.7-78.8-19.7
				s-54.4,3.9-78.8,19.7c-18.1,11-42.5,37.8-55.1,55.9c-11.8,17.3-23.6,44.9-23.6,72.5c0,80.3,72.5,148.1,158.3,148.1
				s158.3-67.7,158.3-148.1C414.3,229.2,402.5,201.6,390.7,184.3z"/>
		</g>
		<g>
			<defs>
				<circle id="SVGID_13_" cx="256" cy="256" r="256"/>
			</defs>
			<clipPath id="SVGID_14_">
				<use xlink:href="#SVGID_13_"  style="overflow:visible;"/>
			</clipPath>
			<path id="XMLID_13_" class="st7" d="M148.1,276.5L148.1,276.5c-12.6,0-21.3-7.9-21.3-18.9c0-23.6,32.3-69.3,59.1-69.3
				c34.7,0,56.7,32.3,57.5,33.9c1.6,2.4,2.4,4.7,1.6,7.9c-0.8,2.4-2.4,4.7-4.7,6.3C234.7,240.2,176.4,276.5,148.1,276.5z"/>
		</g>
		<g>
			<defs>
				<circle id="SVGID_15_" cx="256" cy="256" r="256"/>
			</defs>
			<clipPath id="SVGID_16_">
				<use xlink:href="#SVGID_15_"  style="overflow:visible;"/>
			</clipPath>
			<path id="XMLID_14_" class="st8" d="M186.7,247.3c-11,0-19.7-8.7-19.7-19.7c0-11,8.7-19.7,19.7-19.7c11,0,19.7,8.7,19.7,19.7
				C207.2,237.9,197.7,247.3,186.7,247.3z"/>
		</g>
		<g>
			<defs>
				<circle id="SVGID_17_" cx="256" cy="256" r="256"/>
			</defs>
			<clipPath id="SVGID_18_">
				<use xlink:href="#SVGID_17_"  style="overflow:visible;"/>
			</clipPath>
			<circle id="XMLID_15_" class="st9" cx="186.7" cy="226.9" r="7.9"/>
		</g>
		<g>
			<defs>
				<circle id="SVGID_19_" cx="256" cy="256" r="256"/>
			</defs>
			<clipPath id="SVGID_20_">
				<use xlink:href="#SVGID_19_"  style="overflow:visible;"/>
			</clipPath>
			<path id="XMLID_16_" class="st10" d="M363.9,276.5L363.9,276.5c12.6,0,20.5-7.9,20.5-18.9c0-23.6-32.3-69.3-59.1-69.3
				c-34.7,0-56.7,32.3-57.5,33.9c-1.6,2.4-2.4,4.7-1.6,7.9c0.8,2.4,2.4,4.7,4.7,6.3C277.3,240.2,335.6,276.5,363.9,276.5z"/>
		</g>
		<g>
			<defs>
				<circle id="SVGID_21_" cx="256" cy="256" r="256"/>
			</defs>
			<clipPath id="SVGID_22_">
				<use xlink:href="#SVGID_21_"  style="overflow:visible;"/>
			</clipPath>
			<path id="XMLID_17_" class="st11" d="M325.3,247.3c11,0,19.7-8.7,19.7-19.7c0-11-8.7-19.7-19.7-19.7s-19.7,8.7-19.7,19.7
				C304.8,237.9,314.3,247.3,325.3,247.3z"/>
		</g>
		<g>
			<defs>
				<circle id="SVGID_23_" cx="256" cy="256" r="256"/>
			</defs>
			<clipPath id="SVGID_24_">
				<use xlink:href="#SVGID_23_"  style="overflow:visible;"/>
			</clipPath>
			<circle id="XMLID_18_" class="st12" cx="325.3" cy="226.9" r="7.9"/>
		</g>
		<g>
			<defs>
				<circle id="SVGID_25_" cx="256" cy="256" r="256"/>
			</defs>
			<clipPath id="SVGID_26_">
				<use xlink:href="#SVGID_25_"  style="overflow:visible;"/>
			</clipPath>
			<path id="XMLID_19_" class="st13" d="M265.5,325.3c18.9-3.2,29.9-15.8,38.6-34.7c1.6-3.2,1.6-7.1-0.8-9.5
				C296.2,271,271,267,256,267h-1.6c-15,0-40.2,3.9-47.3,14.2c-1.6,3.2-2.4,6.3-0.8,9.5c9.5,18.1,19.7,30.7,38.6,34.7h3.2v12.6
				L221.3,360c-3.2,3.2-3.9,7.9-0.8,11c3.2,3.2,7.9,3.9,11,0.8l24.4-20.5l24.4,20.5c1.6,1.6,3.2,1.6,4.7,1.6c2.4,0,4.7-0.8,6.3-3.2
				c3.2-3.2,2.4-8.7-0.8-11l-26.8-21.3v-12.6L265.5,325.3L265.5,325.3z"/>
		</g>
	</g>
</g>
</svg>
